<svg width="20" height="20" viewBox="0 0 20 20" fill="none" xmlns="http://www.w3.org/2000/svg">
<g clip-path="url(#clip0_83_2093)">
<path d="M12.5003 4.16642L15.8337 7.49976M17.6453 5.67633C18.0859 5.23585 18.3334 4.63839 18.3335 4.01538C18.3336 3.39237 18.0862 2.79484 17.6457 2.35425C17.2052 1.91366 16.6077 1.66609 15.9847 1.66602C15.3617 1.66594 14.7642 1.91335 14.3236 2.35383L3.20194 13.478C3.00845 13.6709 2.86537 13.9084 2.78527 14.1697L1.68444 17.7963C1.6629 17.8684 1.66127 17.945 1.67973 18.0179C1.69819 18.0908 1.73604 18.1574 1.78927 18.2105C1.8425 18.2636 1.90912 18.3014 1.98207 18.3197C2.05502 18.3381 2.13157 18.3363 2.2036 18.3147L5.8311 17.2147C6.09208 17.1353 6.32958 16.9931 6.52277 16.8005L17.6453 5.67633Z" stroke="white" stroke-width="2" stroke-linecap="round" stroke-linejoin="round"/>
</g>
<defs>
<clipPath id="clip0_83_2093">
<rect width="20" height="20" fill="white"/>
</clipPath>
</defs>
</svg>
