<svg width="18" height="19" viewBox="0 0 18 19" fill="none" xmlns="http://www.w3.org/2000/svg">
<path d="M9.18359 7.51367V11.0703H14.1261C13.9091 12.2141 13.2578 13.1826 12.281 13.8338L15.2615 16.1465C16.9981 14.5435 17.9999 12.1891 17.9999 9.39226C17.9999 8.74106 17.9415 8.11483 17.8329 7.51377L9.18359 7.51367Z" fill="#4285F4"/>
<path d="M4.03704 10.9316L3.36481 11.4462L0.985352 13.2996C2.49649 16.2969 5.59369 18.3674 9.18367 18.3674C11.6632 18.3674 13.742 17.5492 15.2616 16.1466L12.2811 13.834C11.4629 14.385 10.4192 14.719 9.18367 14.719C6.79591 14.719 4.76719 13.1077 4.04079 10.9369L4.03704 10.9316Z" fill="#34A853"/>
<path d="M0.985093 5.06787C0.358963 6.30345 0 7.69773 0 9.1838C0 10.6699 0.358963 12.0642 0.985093 13.2997C0.985093 13.308 4.04083 10.9287 4.04083 10.9287C3.85715 10.3776 3.74859 9.79326 3.74859 9.18371C3.74859 8.57416 3.85715 7.98978 4.04083 7.43876L0.985093 5.06787Z" fill="#FBBC05"/>
<path d="M9.18385 3.6568C10.5364 3.6568 11.7386 4.12433 12.6987 5.02602L15.3286 2.39616C13.7339 0.910083 11.6635 0 9.18385 0C5.59387 0 2.49649 2.06217 0.985352 5.06777L4.04099 7.43885C4.7673 5.26812 6.79609 3.6568 9.18385 3.6568Z" fill="#EA4335"/>
</svg>
