<svg width="20" height="20" viewBox="0 0 20 20" fill="none" xmlns="http://www.w3.org/2000/svg">
<path d="M3.36408 3.90658C3.33119 3.83068 3.32189 3.74664 3.33737 3.66538C3.35285 3.58412 3.3924 3.50939 3.4509 3.4509C3.50939 3.3924 3.58412 3.35285 3.66538 3.33737C3.74664 3.32189 3.83068 3.33119 3.90658 3.36408L17.2399 8.78075C17.321 8.81378 17.3896 8.87151 17.436 8.94574C17.4824 9.01997 17.5043 9.10693 17.4985 9.19428C17.4926 9.28163 17.4595 9.36493 17.4036 9.43236C17.3478 9.49979 17.2721 9.54792 17.1874 9.56992L12.0841 10.8866C11.7957 10.9607 11.5325 11.1107 11.3218 11.321C11.111 11.5313 10.9605 11.7942 10.8857 12.0824L9.56992 17.1874C9.54792 17.2721 9.49979 17.3478 9.43236 17.4036C9.36493 17.4595 9.28163 17.4926 9.19428 17.4985C9.10693 17.5043 9.01997 17.4824 8.94574 17.436C8.87151 17.3896 8.81378 17.321 8.78075 17.2399L3.36408 3.90658Z" stroke="white" stroke-width="2" stroke-linecap="round" stroke-linejoin="round"/>
</svg>
